<?xml version="1.0" encoding="utf-8"?>
<!-- Generator: Adobe Illustrator 16.0.0, SVG Export Plug-In . SVG Version: 6.00 Build 0)  -->
<!DOCTYPE svg PUBLIC "-//W3C//DTD SVG 1.1//EN" "http://www.w3.org/Graphics/SVG/1.1/DTD/svg11.dtd">
<svg version="1.1" id="_x3C_Layer_x3E_" xmlns="http://www.w3.org/2000/svg" xmlns:xlink="http://www.w3.org/1999/xlink" x="0px"
	 y="0px" width="124.814px" height="92.748px" viewBox="0 0 124.814 92.748" enable-background="new 0 0 124.814 92.748"
	 xml:space="preserve">
<g>
	<path fill="none" stroke="#FFFFFF" stroke-width="5" stroke-linecap="round" stroke-linejoin="round" stroke-miterlimit="10" d="
		M17.709,15.899V3.863c0-0.75,0.613-1.363,1.363-1.363h90.984c0.75,0,1.363,0.613,1.363,1.363v66.212"/>
	<path fill="none" stroke="#FFFFFF" stroke-width="5" stroke-linecap="round" stroke-linejoin="round" stroke-miterlimit="10" d="
		M97.903,71.601H15.905l-9.09,16.478c0,1.193,1.405,2.17,3.122,2.17h109.255c1.717,0,3.122-0.977,3.122-2.17l-10.657-17.401"/>
	
		<circle fill="none" stroke="#FFFFFF" stroke-width="5" stroke-linecap="round" stroke-linejoin="round" stroke-miterlimit="10" cx="26.06" cy="38.175" r="23.56"/>
	<g>
		
			<polyline fill="none" stroke="#FFFFFF" stroke-width="5" stroke-linecap="round" stroke-linejoin="round" stroke-miterlimit="10" points="
			15.606,30.799 21.088,47.474 26.451,31.168 31.814,47.474 37.297,30.799 		"/>
		
			<line fill="none" stroke="#FFFFFF" stroke-width="5" stroke-linecap="round" stroke-linejoin="round" stroke-miterlimit="10" x1="12.764" y1="38.576" x2="17.066" y2="38.576"/>
		
			<line fill="none" stroke="#FFFFFF" stroke-width="5" stroke-linecap="round" stroke-linejoin="round" stroke-miterlimit="10" x1="35.054" y1="38.576" x2="39.356" y2="38.576"/>
	</g>
	
		<line fill="none" stroke="#FFFFFF" stroke-width="5" stroke-linecap="round" stroke-linejoin="round" stroke-miterlimit="10" x1="77.788" y1="19.054" x2="95.872" y2="19.054"/>
	
		<line fill="none" stroke="#FFFFFF" stroke-width="5" stroke-linecap="round" stroke-linejoin="round" stroke-miterlimit="10" x1="77.788" y1="28.618" x2="95.872" y2="28.618"/>
</g>
</svg>
