<?xml version="1.0" encoding="utf-8"?>
<!-- Generator: Adobe Illustrator 16.0.0, SVG Export Plug-In . SVG Version: 6.00 Build 0)  -->
<!DOCTYPE svg PUBLIC "-//W3C//DTD SVG 1.1//EN" "http://www.w3.org/Graphics/SVG/1.1/DTD/svg11.dtd">
<svg version="1.1" id="Layer_1" xmlns="http://www.w3.org/2000/svg" xmlns:xlink="http://www.w3.org/1999/xlink" x="0px" y="0px"
	 width="25px" height="25px" viewBox="0 0 25 25" enable-background="new 0 0 25 25" xml:space="preserve">
<title>i_arrow_right</title>
<desc>Created with Sketch.</desc>
<g id="Page-1">
	<g id="i_arrow_right">
		<path id="Path-2" fill="#979797" d="M5.35,10.144C5.175,9.93,5.207,9.614,5.421,9.44c0.214-0.175,0.528-0.143,0.704,0.071
			c1.759,2.161,3.177,3.778,4.249,4.851c0.981,0.981,1.67,1.484,1.882,1.484s0.898-0.5,1.876-1.478
			c1.068-1.069,2.481-2.683,4.235-4.838c0.174-0.214,0.489-0.246,0.703-0.072s0.246,0.489,0.072,0.703
			c-3.696,4.544-5.839,6.687-6.889,6.685C11.206,16.845,9.058,14.696,5.35,10.144z"/>
	</g>
</g>
</svg>
