<?xml version="1.0" encoding="utf-8"?>
<!-- Generator: Adobe Illustrator 16.0.0, SVG Export Plug-In . SVG Version: 6.00 Build 0)  -->
<!DOCTYPE svg PUBLIC "-//W3C//DTD SVG 1.1//EN" "http://www.w3.org/Graphics/SVG/1.1/DTD/svg11.dtd">
<svg version="1.1" id="Layer_1" xmlns="http://www.w3.org/2000/svg" xmlns:xlink="http://www.w3.org/1999/xlink" x="0px" y="0px"
	 width="25px" height="25px" viewBox="0 0 25 25" enable-background="new 0 0 25 25" xml:space="preserve">
<g id="i_arrow_left">
	<path id="Path-2" fill="#53565A" d="M5.409,10.133C5.235,9.918,5.267,9.604,5.481,9.429C5.695,9.254,6.01,9.288,6.185,9.5
		c1.76,2.161,3.178,3.779,4.25,4.851c0.981,0.981,1.67,1.484,1.882,1.484c0.211,0,0.898-0.5,1.876-1.478
		c1.068-1.069,2.48-2.682,4.234-4.838c0.174-0.214,0.49-0.246,0.703-0.072c0.215,0.175,0.248,0.49,0.072,0.704
		c-3.695,4.543-5.838,6.685-6.888,6.684C11.267,16.834,9.118,14.686,5.409,10.133z"/>
</g>
</svg>
