<?xml version="1.0" encoding="utf-8"?>
<!-- Generator: Adobe Illustrator 16.0.0, SVG Export Plug-In . SVG Version: 6.00 Build 0)  -->
<!DOCTYPE svg PUBLIC "-//W3C//DTD SVG 1.1//EN" "http://www.w3.org/Graphics/SVG/1.1/DTD/svg11.dtd">
<svg version="1.1" id="Capa_1" xmlns="http://www.w3.org/2000/svg" xmlns:xlink="http://www.w3.org/1999/xlink" x="0px" y="0px"
	 width="28.5px" height="28.499px" viewBox="143.466 283.688 28.5 28.499" enable-background="new 143.466 283.688 28.5 28.499"
	 xml:space="preserve">
<g>
	<g id="calendar_1_">
		<path fill="#FF7900" d="M169.594,286.359h-3.859v-1.781c0-0.492-0.398-0.891-0.892-0.891s-0.891,0.397-0.891,0.891v1.781h-5.345
			v-1.781c0-0.492-0.398-0.891-0.891-0.891s-0.891,0.397-0.891,0.891v1.781h-5.344v-1.781c0-0.492-0.399-0.891-0.892-0.891
			c-0.491,0-0.891,0.397-0.891,0.891v1.781h-3.859c-1.312,0-2.375,1.063-2.375,2.373v21.079c0,1.313,1.063,2.375,2.375,2.375h23.75
			c1.312,0,2.375-1.063,2.375-2.375v-21.079C171.969,287.422,170.906,286.359,169.594,286.359z M170.188,309.813
			c0,0.326-0.266,0.594-0.593,0.594h-23.75c-0.327,0-0.594-0.268-0.594-0.594v-21.079c0-0.326,0.267-0.594,0.594-0.594h3.859v1.781
			c0,0.492,0.399,0.891,0.891,0.891c0.492,0,0.892-0.397,0.892-0.891v-1.781h5.344v1.781c0,0.492,0.398,0.891,0.891,0.891
			s0.892-0.397,0.892-0.891v-1.781h5.344v1.781c0,0.492,0.397,0.891,0.892,0.891c0.492,0,0.891-0.397,0.891-0.891v-1.781h3.859
			c0.327,0,0.594,0.268,0.594,0.594v21.079H170.188z"/>
		<rect x="149.703" y="294.375" fill="#FF7900" width="3.563" height="2.672"/>
		<rect x="149.703" y="298.828" fill="#FF7900" width="3.563" height="2.672"/>
		<rect x="149.703" y="303.281" fill="#FF7900" width="3.563" height="2.672"/>
		<rect x="155.938" y="303.281" fill="#FF7900" width="3.563" height="2.672"/>
		<rect x="155.938" y="298.828" fill="#FF7900" width="3.563" height="2.672"/>
		<rect x="155.938" y="294.375" fill="#FF7900" width="3.563" height="2.672"/>
		<rect x="162.172" y="303.281" fill="#FF7900" width="3.563" height="2.672"/>
		<rect x="162.172" y="298.828" fill="#FF7900" width="3.563" height="2.672"/>
		<rect x="162.172" y="294.375" fill="#FF7900" width="3.563" height="2.672"/>
	</g>
</g>
</svg>
