<?xml version="1.0" encoding="utf-8"?>
<!-- Generator: Adobe Illustrator 16.0.0, SVG Export Plug-In . SVG Version: 6.00 Build 0)  -->
<!DOCTYPE svg PUBLIC "-//W3C//DTD SVG 1.1//EN" "http://www.w3.org/Graphics/SVG/1.1/DTD/svg11.dtd">
<svg version="1.1" id="Layer_1" xmlns="http://www.w3.org/2000/svg" xmlns:xlink="http://www.w3.org/1999/xlink" x="0px" y="0px"
	 width="186px" height="50px" viewBox="0 0 186 50" enable-background="new 0 0 186 50" xml:space="preserve">
<text transform="matrix(1 0 0 1 60 41.4707)" display="none" font-family="'Gotham-Medium'" font-size="48" letter-spacing="-1">eSign</text>
<g>
	<path d="M70.56,35.639c1.313,1.104,2.912,1.656,4.801,1.656c1.439,0,2.688-0.256,3.743-0.769c1.057-0.511,2.096-1.263,3.12-2.256
		l3.408,3.024c-1.217,1.439-2.664,2.592-4.344,3.456c-1.68,0.863-3.688,1.296-6.024,1.296c-1.823,0-3.527-0.32-5.111-0.96
		s-2.961-1.536-4.128-2.688c-1.169-1.151-2.089-2.535-2.761-4.152c-0.672-1.615-1.008-3.415-1.008-5.399
		c0-1.824,0.304-3.536,0.912-5.136c0.607-1.6,1.464-3,2.568-4.2c1.104-1.2,2.407-2.152,3.912-2.856
		c1.503-0.704,3.168-1.056,4.991-1.056c2.017,0,3.784,0.368,5.305,1.104c1.52,0.736,2.783,1.728,3.792,2.976
		c1.008,1.248,1.768,2.705,2.279,4.368c0.512,1.664,0.769,3.408,0.769,5.232c0,0.256-0.009,0.512-0.024,0.768
		c-0.017,0.256-0.04,0.527-0.071,0.816H68.064C68.416,32.943,69.247,34.535,70.56,35.639z M81.024,27.022
		c-0.097-0.928-0.305-1.8-0.624-2.616c-0.32-0.816-0.753-1.52-1.297-2.112c-0.544-0.592-1.192-1.063-1.943-1.416
		c-0.752-0.352-1.608-0.528-2.568-0.528c-1.792,0-3.272,0.617-4.439,1.848c-1.169,1.232-1.881,2.84-2.137,4.824H81.024z"/>
	<path d="M96.72,18.383c0.225,0.48,0.633,0.928,1.228,1.344c0.593,0.417,1.411,0.8,2.454,1.152c1.042,0.353,2.366,0.72,3.97,1.104
		c1.765,0.448,3.329,0.944,4.692,1.488c1.363,0.544,2.494,1.208,3.393,1.992s1.58,1.696,2.045,2.736
		c0.465,1.039,0.698,2.264,0.698,3.672c0,1.6-0.294,3.023-0.881,4.271c-0.588,1.248-1.405,2.304-2.452,3.168
		s-2.306,1.521-3.774,1.968c-1.471,0.448-3.085,0.673-4.845,0.673c-2.592,0-5.072-0.44-7.439-1.32
		c-2.369-0.88-4.561-2.232-6.576-4.057l3.552-4.224c1.632,1.409,3.279,2.489,4.944,3.24c1.663,0.752,3.552,1.128,5.664,1.128
		c1.823,0,3.271-0.385,4.344-1.152c1.071-0.768,1.607-1.807,1.607-3.119c0-0.607-0.104-1.152-0.313-1.633
		c-0.208-0.48-0.594-0.92-1.155-1.32c-0.562-0.399-1.332-0.775-2.31-1.127c-0.979-0.352-2.254-0.721-3.826-1.104
		c-1.797-0.415-3.393-0.88-4.788-1.392s-2.566-1.152-3.513-1.92s-1.669-1.696-2.166-2.784c-0.497-1.087-0.745-2.416-0.745-3.984
		c0-1.471,0.285-2.808,0.856-4.008c0.571-1.2,1.356-2.232,2.356-3.096c1-0.864,2.202-1.528,3.607-1.992
		c1.404-0.464,2.939-0.696,4.604-0.696c2.464,0,4.68,0.36,6.648,1.08c1.968,0.72,3.815,1.769,5.544,3.144l-3.168,4.464
		c-1.536-1.12-3.057-1.976-4.561-2.568c-1.505-0.592-3.023-0.888-4.56-0.888c-1.729,0-3.072,0.393-4.032,1.176
		c-0.96,0.784-1.44,1.736-1.44,2.856C96.383,17.327,96.495,17.903,96.72,18.383z"/>
	<path d="M119.712,12.239v-5.52H126v5.52H119.712z M119.952,41.471V16.126h5.855v25.344H119.952z"/>
	<path d="M152.831,46.127c-2.368,2.079-5.729,3.12-10.08,3.12c-4.224,0-8-1.009-11.328-3.024l2.16-4.368
		c1.344,0.832,2.752,1.488,4.225,1.968c1.471,0.48,3.071,0.721,4.8,0.721c2.592,0,4.575-0.659,5.952-1.978
		c1.375-1.318,2.063-3.263,2.063-5.836v-1.977c-1.056,1.39-2.288,2.521-3.696,3.393c-1.408,0.873-3.151,1.31-5.231,1.31
		c-1.505,0-2.944-0.265-4.32-0.792c-1.376-0.528-2.6-1.304-3.672-2.329c-1.072-1.023-1.928-2.271-2.568-3.743
		c-0.64-1.472-0.96-3.151-0.96-5.04c0-1.888,0.32-3.568,0.96-5.04c0.641-1.472,1.496-2.72,2.568-3.744
		c1.072-1.023,2.304-1.808,3.696-2.352c1.392-0.543,2.823-0.816,4.296-0.816c2.144,0,3.912,0.428,5.304,1.285
		c1.393,0.856,2.584,1.882,3.576,3.078v-3.834h5.808v20.161C156.383,40.768,155.199,44.046,152.831,46.127z M150.071,24.666
		c-0.4-0.874-0.937-1.612-1.608-2.216c-0.672-0.604-1.464-1.073-2.376-1.406c-0.912-0.334-1.864-0.501-2.855-0.501
		c-1.024,0-1.968,0.167-2.832,0.501c-0.864,0.333-1.625,0.802-2.28,1.406c-0.656,0.604-1.168,1.335-1.536,2.193
		s-0.552,1.811-0.552,2.86s0.192,2.003,0.576,2.86s0.896,1.598,1.536,2.217c0.64,0.619,1.399,1.097,2.279,1.43
		c0.88,0.334,1.816,0.501,2.809,0.501c0.991,0,1.943-0.167,2.855-0.501c0.912-0.333,1.704-0.811,2.376-1.43s1.208-1.351,1.608-2.193
		c0.399-0.842,0.6-1.787,0.6-2.836S150.471,25.541,150.071,24.666z"/>
	<path d="M167.615,41.471h-5.855V16.126h5.855v3.977c0.415-0.613,0.869-1.187,1.364-1.719c0.494-0.533,1.068-1.009,1.723-1.429
		s1.373-0.751,2.154-0.993s1.667-0.364,2.656-0.364c2.872,0,5.09,0.88,6.653,2.64c1.563,1.76,2.346,4.128,2.346,7.104v16.128h-5.856
		V27.104c0-1.979-0.468-3.504-1.404-4.574c-0.936-1.069-2.26-1.604-3.974-1.604c-1.681,0-3.045,0.551-4.092,1.652
		c-1.047,1.102-1.57,2.642-1.57,4.62V41.471z"/>
</g>
<circle fill="#FF7900" cx="25.376" cy="25.151" r="23.874"/>
</svg>
