<?xml version="1.0" encoding="utf-8"?>
<!-- Generator: Adobe Illustrator 16.0.0, SVG Export Plug-In . SVG Version: 6.00 Build 0)  -->
<!DOCTYPE svg PUBLIC "-//W3C//DTD SVG 1.1//EN" "http://www.w3.org/Graphics/SVG/1.1/DTD/svg11.dtd">
<svg version="1.1" id="_x3C_Layer_x3E_" xmlns="http://www.w3.org/2000/svg" xmlns:xlink="http://www.w3.org/1999/xlink" x="0px"
	 y="0px" width="104.125px" height="101.301px" viewBox="0 0 104.125 101.301" enable-background="new 0 0 104.125 101.301"
	 xml:space="preserve">
<g>
	<path fill="none" stroke="#FF7900" stroke-width="4" stroke-linecap="round" stroke-linejoin="round" stroke-miterlimit="10" d="
		M102.125,73.688c0,14.146-11.468,25.612-25.613,25.612c-14.142,0-25.612-11.467-25.612-25.612S62.37,48.076,76.512,48.076
		C90.657,48.076,102.125,59.543,102.125,73.688z"/>
	
		<polyline fill="none" stroke="#FF7900" stroke-width="4" stroke-linecap="round" stroke-linejoin="round" stroke-miterlimit="10" points="
		89.859,66.564 74.383,79.909 65.299,70.823 	"/>
	
		<polyline fill="none" stroke="#FF7900" stroke-width="4" stroke-linecap="round" stroke-linejoin="round" stroke-miterlimit="10" points="
		76.884,37.196 76.884,2 19.437,2 19.437,67.021 12.392,67.021 	"/>
	
		<polyline fill="none" stroke="#FF7900" stroke-width="4" stroke-linecap="round" stroke-linejoin="round" stroke-miterlimit="10" points="
		43.64,90.324 2,90.324 2,53.938 18.858,38.896 	"/>
	<g>
		
			<line fill="none" stroke="#FF7900" stroke-width="4" stroke-linecap="round" stroke-linejoin="round" stroke-miterlimit="10" x1="39.004" y1="16.154" x2="56.644" y2="16.154"/>
		
			<line fill="none" stroke="#FF7900" stroke-width="4" stroke-linecap="round" stroke-linejoin="round" stroke-miterlimit="10" x1="39.004" y1="25.75" x2="56.644" y2="25.75"/>
		
			<line fill="none" stroke="#FF7900" stroke-width="4" stroke-linecap="round" stroke-linejoin="round" stroke-miterlimit="10" x1="39.004" y1="35.345" x2="56.644" y2="35.345"/>
	</g>
</g>
</svg>
