<?xml version="1.0" encoding="utf-8"?>
<!-- Generator: Adobe Illustrator 16.0.0, SVG Export Plug-In . SVG Version: 6.00 Build 0)  -->
<!DOCTYPE svg PUBLIC "-//W3C//DTD SVG 1.1//EN" "http://www.w3.org/Graphics/SVG/1.1/DTD/svg11.dtd">
<svg version="1.1" id="Layer_1" xmlns="http://www.w3.org/2000/svg" xmlns:xlink="http://www.w3.org/1999/xlink" x="0px" y="0px"
	 width="24px" height="24px" viewBox="0 0 24 24" enable-background="new 0 0 24 24" xml:space="preserve">
<path fill="#FF7900" d="M17.843,1c2.159,0,3.912,1.753,3.912,3.912c0,0.395-0.053,1.704-1.194,2.813l-8.465,8.464
	c-0.596,0.672-2.12,1.279-3.299,0.1c-1.178-1.178-0.586-2.686,0.088-3.29l4.409-4.409L14,9.297l-3.164,3.163l0.014,0.003
	l-1.411,1.413l0.004,0.003c-0.97,1.15,0.618,2.93,1.977,1.572l8.383-8.384c0.656-0.652,0.94-1.393,0.94-2.155
	c0-1.601-1.3-2.9-2.9-2.9c-0.782,0-1.495,0.311-2.018,0.818l-0.003-0.003C15.249,3.4,4.32,14.32,4.288,14.354l-0.002-0.002
	C3.491,15.164,3,16.275,3,17.5C3,19.982,5.017,22,7.5,22c0.65,0,1.84,0.007,3.52-1.668l10.273-10.267L22,10.772L11.523,21.249
	C10.519,22.326,9.088,23,7.5,23C4.465,23,2,20.535,2,17.5c0-1.577,0.666-3,1.731-4.004C14.398,2.829,14.566,2.657,15.025,2.199
	C15.303,1.921,16.241,1,17.843,1"/>
</svg>
