<?xml version="1.0" encoding="utf-8"?>
<!-- Generator: Adobe Illustrator 16.0.0, SVG Export Plug-In . SVG Version: 6.00 Build 0)  -->
<!DOCTYPE svg PUBLIC "-//W3C//DTD SVG 1.1//EN" "http://www.w3.org/Graphics/SVG/1.1/DTD/svg11.dtd">
<svg version="1.1" id="Layer_1" xmlns="http://www.w3.org/2000/svg" xmlns:xlink="http://www.w3.org/1999/xlink" x="0px" y="0px"
	 width="106.301px" height="86.956px" viewBox="0 0 106.301 86.956" enable-background="new 0 0 106.301 86.956"
	 xml:space="preserve">
<path fill="none" stroke="#FF7900" stroke-width="4" stroke-linecap="round" stroke-linejoin="round" stroke-miterlimit="10" d="
	M72.434,84.956h28.511c1.846,0,3.356-1.51,3.356-3.355V18.395c0-1.846-1.51-3.355-3.356-3.355H71.258l-2.367-9.684
	c0-1.847-1.51-3.355-3.356-3.355h-24.77c-1.846,0-3.355,1.509-3.355,3.355l-2.368,9.684H5.355C3.51,15.039,2,16.549,2,18.395v63.206
	c0,1.846,1.51,3.355,3.355,3.355h29.986"/>
<circle fill="none" stroke="#FF7900" stroke-width="4" stroke-linecap="round" stroke-linejoin="round" stroke-miterlimit="10" cx="53.15" cy="53.199" r="24.08"/>
<circle fill="none" stroke="#FF7900" stroke-width="4" stroke-linecap="round" stroke-linejoin="round" stroke-miterlimit="10" cx="53.15" cy="53.199" r="14.479"/>
<line fill="none" stroke="#FF7900" stroke-width="4" stroke-linecap="round" stroke-linejoin="round" stroke-miterlimit="10" x1="11.479" y1="6.166" x2="21.984" y2="6.166"/>
<path fill="#FF7900" d="M92.07,30.86c0,1.958-1.587,3.546-3.546,3.546c-1.958,0-3.545-1.588-3.545-3.546s1.587-3.546,3.545-3.546
	C90.483,27.314,92.07,28.902,92.07,30.86"/>
</svg>
