<?xml version="1.0" encoding="utf-8"?>
<!-- Generator: Adobe Illustrator 16.0.0, SVG Export Plug-In . SVG Version: 6.00 Build 0)  -->
<!DOCTYPE svg PUBLIC "-//W3C//DTD SVG 1.1//EN" "http://www.w3.org/Graphics/SVG/1.1/DTD/svg11.dtd">
<svg version="1.1" id="Layer_1" xmlns="http://www.w3.org/2000/svg" xmlns:xlink="http://www.w3.org/1999/xlink" x="0px" y="0px"
	 width="84.989px" height="30.996px" viewBox="0 0 84.989 30.996" enable-background="new 0 0 84.989 30.996" xml:space="preserve">
<image display="none" overflow="visible" enable-background="new    " width="85" height="32" xlink:href="4D376F47.jpeg"  transform="matrix(0.9999 0 0 0.9687 0 0)">
</image>
<text transform="matrix(1 0 0 1 4.882813e-004 24.4863)" display="none" font-family="'Gotham-Medium'" font-size="30.9925">eSign</text>
<g>
	<path d="M6.819,20.721c0.847,0.713,1.88,1.069,3.099,1.069c0.93,0,1.736-0.165,2.417-0.496c0.682-0.33,1.353-0.815,2.015-1.456
		l2.2,1.952c-0.785,0.93-1.72,1.674-2.805,2.231c-1.084,0.558-2.381,0.837-3.89,0.837c-1.178,0-2.278-0.207-3.301-0.62
		c-1.022-0.413-1.911-0.991-2.665-1.735c-0.754-0.744-1.348-1.638-1.782-2.681c-0.434-1.043-0.651-2.206-0.651-3.487
		c0-1.178,0.196-2.282,0.589-3.315s0.945-1.938,1.658-2.712c0.713-0.775,1.555-1.39,2.526-1.844
		c0.971-0.455,2.045-0.682,3.223-0.682c1.302,0,2.443,0.238,3.425,0.713c0.981,0.476,1.797,1.116,2.448,1.922
		s1.142,1.746,1.472,2.82s0.496,2.2,0.496,3.378c0,0.166-0.005,0.331-0.016,0.496c-0.011,0.165-0.026,0.341-0.046,0.526H5.207
		C5.435,18.98,5.971,20.008,6.819,20.721z M13.575,15.157c-0.062-0.599-0.197-1.162-0.403-1.688
		c-0.207-0.527-0.486-0.981-0.837-1.364c-0.352-0.382-0.77-0.687-1.255-0.914c-0.485-0.227-1.038-0.341-1.658-0.341
		c-1.158,0-2.113,0.398-2.867,1.193c-0.754,0.796-1.214,1.834-1.379,3.114H13.575z"/>
	<path d="M24.361,9.579c0.145,0.31,0.409,0.6,0.792,0.867c0.383,0.27,0.912,0.518,1.584,0.744c0.673,0.228,1.528,0.465,2.563,0.713
		c1.139,0.29,2.149,0.609,3.03,0.961s1.61,0.78,2.19,1.286c0.58,0.507,1.02,1.096,1.32,1.767c0.3,0.672,0.451,1.462,0.451,2.371
		c0,1.033-0.189,1.952-0.569,2.758c-0.379,0.806-0.907,1.488-1.583,2.046c-0.676,0.558-1.489,0.981-2.437,1.271
		c-0.949,0.289-1.992,0.434-3.128,0.434c-1.674,0-3.275-0.284-4.804-0.852c-1.529-0.568-2.944-1.441-4.246-2.619l2.293-2.728
		c1.054,0.909,2.118,1.606,3.192,2.092c1.074,0.486,2.293,0.729,3.657,0.729c1.178,0,2.112-0.248,2.805-0.744
		c0.692-0.495,1.039-1.167,1.039-2.014c0-0.393-0.067-0.744-0.202-1.054c-0.134-0.311-0.383-0.594-0.746-0.853
		c-0.363-0.259-0.86-0.501-1.492-0.729s-1.455-0.465-2.47-0.713c-1.16-0.269-2.19-0.568-3.091-0.898
		c-0.901-0.33-1.657-0.744-2.268-1.24c-0.611-0.496-1.078-1.095-1.399-1.797c-0.321-0.702-0.481-1.561-0.481-2.572
		c0-0.951,0.184-1.813,0.553-2.588s0.876-1.441,1.521-1.999c0.646-0.558,1.422-0.986,2.33-1.286c0.907-0.299,1.897-0.45,2.972-0.45
		c1.591,0,3.022,0.232,4.292,0.698c1.271,0.465,2.464,1.142,3.58,2.03l-2.045,2.882c-0.992-0.723-1.974-1.275-2.944-1.658
		c-0.971-0.382-1.953-0.573-2.944-0.573c-1.116,0-1.983,0.253-2.604,0.759c-0.62,0.506-0.93,1.121-0.93,1.844
		C24.143,8.896,24.215,9.27,24.361,9.579z"/>
	<path d="M39.856,5.612V2.048h4.061v3.564H39.856z M40.011,24.486V8.122h3.781v16.364H40.011z"/>
	<path d="M61.892,27.492c-1.529,1.343-3.699,2.015-6.509,2.015c-2.728,0-5.166-0.65-7.314-1.952l1.395-2.82
		c0.868,0.537,1.777,0.961,2.728,1.271s1.983,0.465,3.1,0.465c1.674,0,2.954-0.426,3.843-1.276c0.889-0.852,1.333-2.107,1.333-3.768
		v-1.277c-0.682,0.897-1.478,1.628-2.387,2.191s-2.035,0.845-3.378,0.845c-0.972,0-1.901-0.17-2.789-0.512
		c-0.889-0.341-1.68-0.841-2.371-1.503c-0.692-0.661-1.245-1.467-1.658-2.417c-0.414-0.95-0.62-2.035-0.62-3.255
		c0-1.219,0.206-2.303,0.62-3.254c0.413-0.95,0.966-1.756,1.658-2.417c0.691-0.661,1.487-1.167,2.386-1.519
		c0.899-0.351,1.823-0.527,2.774-0.527c1.384,0,2.525,0.277,3.425,0.83c0.898,0.553,1.668,1.215,2.309,1.986V8.122h3.75v13.017
		C64.185,24.032,63.42,26.149,61.892,27.492z M60.11,13.636c-0.259-0.563-0.604-1.041-1.038-1.431
		c-0.435-0.39-0.945-0.692-1.534-0.908c-0.589-0.215-1.204-0.323-1.845-0.323c-0.661,0-1.271,0.108-1.828,0.323
		c-0.558,0.216-1.049,0.519-1.473,0.908c-0.423,0.39-0.754,0.862-0.991,1.416c-0.238,0.554-0.356,1.169-0.356,1.847
		c0,0.677,0.124,1.293,0.372,1.847s0.578,1.031,0.991,1.432c0.413,0.399,0.904,0.708,1.473,0.923
		c0.567,0.216,1.172,0.323,1.813,0.323s1.256-0.107,1.845-0.323c0.589-0.215,1.1-0.523,1.534-0.923
		c0.434-0.4,0.779-0.872,1.038-1.416c0.258-0.544,0.387-1.154,0.387-1.832C60.497,14.821,60.368,14.201,60.11,13.636z"/>
	<path d="M72.088,24.486h-3.781V8.122h3.781v2.567c0.268-0.396,0.562-0.766,0.881-1.109s0.689-0.651,1.112-0.923
		c0.422-0.271,0.886-0.484,1.391-0.641c0.505-0.156,1.076-0.235,1.715-0.235c1.854,0,3.286,0.569,4.296,1.705
		c1.01,1.136,1.515,2.665,1.515,4.587v10.413h-3.781V15.21c0-1.277-0.302-2.262-0.906-2.952c-0.604-0.691-1.46-1.036-2.565-1.036
		c-1.086,0-1.967,0.355-2.643,1.066c-0.676,0.712-1.014,1.706-1.014,2.983V24.486z"/>
</g>
<g display="none">
	<path display="inline" d="M17.589,17.234c-0.011,0.165-0.026,0.361-0.047,0.589H5.982c0.227,1.074,0.697,1.886,1.41,2.433
		c0.713,0.548,1.596,0.821,2.65,0.821c0.785,0,1.488-0.134,2.107-0.403c0.62-0.268,1.26-0.702,1.922-1.301l2.696,2.386
		c-0.786,0.972-1.736,1.73-2.852,2.278c-1.116,0.547-2.428,0.821-3.936,0.821c-1.24,0-2.392-0.207-3.456-0.62
		c-1.064-0.413-1.983-1.002-2.758-1.767c-0.775-0.764-1.379-1.668-1.813-2.712c-0.434-1.043-0.651-2.205-0.651-3.486v-0.063
		c0-1.178,0.201-2.293,0.604-3.347c0.403-1.054,0.965-1.973,1.689-2.759C4.319,9.32,5.181,8.701,6.184,8.246
		c1.002-0.454,2.112-0.682,3.332-0.682c1.384,0,2.583,0.248,3.595,0.744c1.012,0.497,1.854,1.163,2.526,2
		c0.671,0.837,1.167,1.797,1.488,2.882c0.32,1.085,0.48,2.216,0.48,3.394v0.063C17.604,16.873,17.599,17.069,17.589,17.234z
		 M11.901,12.322c-0.599-0.651-1.395-0.977-2.386-0.977s-1.792,0.32-2.402,0.961c-0.61,0.641-1.007,1.498-1.193,2.572h7.097
		C12.873,13.825,12.5,12.973,11.901,12.322z"/>
	<path display="inline" d="M35.986,20.938c-0.391,0.837-0.934,1.54-1.632,2.107c-0.699,0.568-1.531,1.003-2.499,1.302
		c-0.968,0.3-2.041,0.449-3.218,0.449c-1.653,0-3.275-0.284-4.866-0.852c-1.591-0.568-3.038-1.441-4.339-2.619l2.82-3.378
		c0.992,0.806,2.009,1.446,3.053,1.921c1.043,0.476,2.185,0.713,3.424,0.713c0.992,0,1.761-0.181,2.309-0.542
		c0.547-0.361,0.821-0.862,0.821-1.503v-0.063c0-0.31-0.057-0.583-0.171-0.821c-0.114-0.237-0.332-0.459-0.653-0.666
		c-0.321-0.206-0.767-0.413-1.336-0.62c-0.57-0.206-1.311-0.423-2.222-0.65c-1.099-0.269-2.093-0.568-2.984-0.899
		c-0.891-0.33-1.647-0.738-2.268-1.224c-0.622-0.485-1.103-1.09-1.445-1.813c-0.342-0.723-0.513-1.622-0.513-2.696V9.021
		c0-0.992,0.185-1.886,0.554-2.681s0.888-1.482,1.555-2.061c0.667-0.578,1.464-1.023,2.391-1.333
		c0.926-0.31,1.947-0.465,3.063-0.465c1.59,0,3.053,0.238,4.385,0.713c1.333,0.476,2.557,1.158,3.672,2.046L33.41,8.835
		c-0.972-0.661-1.922-1.183-2.852-1.565s-1.859-0.573-2.789-0.573c-0.93,0-1.627,0.181-2.092,0.542S24.98,8.05,24.98,8.588v0.062
		c0,0.352,0.067,0.655,0.202,0.914c0.134,0.259,0.377,0.491,0.73,0.697c0.352,0.207,0.834,0.403,1.445,0.589
		c0.611,0.186,1.382,0.403,2.315,0.65c1.098,0.29,2.077,0.615,2.937,0.977c0.86,0.362,1.584,0.796,2.175,1.302
		c0.59,0.507,1.036,1.101,1.336,1.782c0.3,0.682,0.451,1.498,0.451,2.448v0.063C36.571,19.146,36.376,20.101,35.986,20.938z"/>
	<path display="inline" d="M39.608,6.046V1.862h4.959v4.184H39.608z M39.732,24.486V7.875h4.711v16.612H39.732z"/>
	<path display="inline" d="M64.293,24.75c-0.383,1.104-0.961,2.009-1.735,2.712c-0.775,0.702-1.741,1.219-2.898,1.549
		c-1.157,0.331-2.51,0.496-4.06,0.496c-1.364,0-2.666-0.149-3.905-0.449s-2.387-0.729-3.44-1.286l1.612-3.533
		c0.867,0.476,1.74,0.847,2.618,1.116c0.878,0.268,1.875,0.402,2.991,0.402c1.611,0,2.805-0.383,3.579-1.146
		c0.775-0.765,1.162-1.891,1.162-3.378v-0.806c-0.702,0.847-1.467,1.508-2.293,1.983s-1.87,0.713-3.13,0.713
		c-0.972,0-1.901-0.171-2.79-0.512s-1.673-0.842-2.355-1.503c-0.682-0.661-1.224-1.473-1.627-2.434
		c-0.402-0.96-0.604-2.061-0.604-3.3v-0.063c0-1.239,0.207-2.34,0.62-3.301s0.961-1.771,1.643-2.433s1.467-1.163,2.355-1.503
		s1.808-0.511,2.759-0.511c1.28,0,2.334,0.238,3.161,0.713c0.826,0.476,1.56,1.064,2.2,1.767V7.875h4.711v12.862
		C64.867,22.307,64.675,23.645,64.293,24.75z M60.217,15.313c0-0.558-0.104-1.074-0.31-1.55c-0.207-0.475-0.491-0.883-0.853-1.224
		s-0.79-0.604-1.286-0.791c-0.495-0.186-1.033-0.278-1.611-0.278c-0.579,0-1.111,0.093-1.596,0.278
		c-0.486,0.187-0.91,0.45-1.271,0.791s-0.646,0.749-0.852,1.224c-0.207,0.476-0.311,0.992-0.311,1.55v0.063
		c0,1.157,0.383,2.087,1.147,2.789c0.764,0.702,1.725,1.054,2.882,1.054c0.578,0,1.116-0.093,1.611-0.279
		c0.496-0.186,0.925-0.449,1.286-0.79s0.646-0.749,0.853-1.225c0.206-0.475,0.31-0.991,0.31-1.549V15.313z"/>
	<path display="inline" d="M78.875,24.486v-9.244c0-1.112-0.248-1.953-0.744-2.52s-1.198-0.851-2.107-0.851
		s-1.627,0.284-2.154,0.851c-0.526,0.566-0.79,1.407-0.79,2.52v9.244h-4.711V7.875h4.711v2.375c0.269-0.354,0.563-0.691,0.883-1.015
		c0.32-0.322,0.677-0.607,1.069-0.858c0.393-0.25,0.826-0.447,1.302-0.593c0.476-0.146,1.013-0.219,1.612-0.219
		c1.797,0,3.187,0.548,4.168,1.643c0.981,1.096,1.473,2.604,1.473,4.525v10.754H78.875z"/>
</g>
</svg>
