<?xml version="1.0" encoding="utf-8"?>
<!-- Generator: Adobe Illustrator 16.0.0, SVG Export Plug-In . SVG Version: 6.00 Build 0)  -->
<!DOCTYPE svg PUBLIC "-//W3C//DTD SVG 1.1//EN" "http://www.w3.org/Graphics/SVG/1.1/DTD/svg11.dtd">
<svg version="1.1" id="Layer_1" xmlns="http://www.w3.org/2000/svg" xmlns:xlink="http://www.w3.org/1999/xlink" x="0px" y="0px"
	 width="339.242px" height="109.154px" viewBox="0 0 339.242 109.154" enable-background="new 0 0 339.242 109.154"
	 xml:space="preserve">
<g opacity="0.3">
	<g>
		<path fill="#F47920" d="M59.521,29.702c0,16.411-13.323,29.716-29.764,29.716C13.328,59.417,0,46.112,0,29.702
			C0,13.299,13.328,0,29.757,0C46.197,0,59.521,13.299,59.521,29.702"/>
	</g>
	<g>
		<path fill="#282933" d="M93.017,43.407H85.27l-5.191-9.714h-3.264v9.714h-6.686V16.271h11.09c3.041,0,5.564,0.813,7.57,2.438
			c2.006,1.626,3.009,3.671,3.009,6.135c0,1.652-0.459,3.16-1.377,4.523c-0.918,1.363-2.189,2.425-3.814,3.185L93.017,43.407z
			 M84.837,25.081c0-0.917-0.321-1.632-0.964-2.144s-1.527-0.767-2.654-0.767h-4.404v5.821h4.404c1.127,0,2.012-0.256,2.654-0.767
			C84.515,26.713,84.837,25.999,84.837,25.081z"/>
		<path fill="#282933" d="M108.865,37.704c1.468,0,2.831-0.157,4.09-0.472s2.451-0.787,3.579-1.416v6.253
			c-1.049,0.603-2.189,1.042-3.422,1.317c-1.233,0.275-2.768,0.413-4.602,0.413c-4.248,0-7.755-1.311-10.521-3.933
			c-2.767-2.621-4.149-5.938-4.149-9.95c0-4.063,1.402-7.419,4.208-10.067c2.806-2.648,6.345-3.972,10.619-3.972
			c1.625,0,3.054,0.151,4.286,0.452c1.232,0.302,2.294,0.754,3.186,1.357v6.253c-1.022-0.655-2.13-1.146-3.323-1.475
			c-1.193-0.328-2.536-0.492-4.031-0.492c-2.49,0-4.443,0.695-5.859,2.084c-1.416,1.39-2.124,3.317-2.124,5.781
			c0,2.465,0.715,4.392,2.145,5.781C104.376,37.007,106.349,37.704,108.865,37.704z"/>
		<path fill="#282933" d="M119.72,16.271h6.687v27.136h-6.687V16.271z"/>
		<path fill="#282933" d="M157.395,16.271v5.899H145.36v5.152h8.888v5.898h-8.888v10.187h-6.686V16.271H157.395z"/>
		<path fill="#282933" d="M160.345,16.271h6.687v27.136h-6.687V16.271z"/>
		<path fill="#282933" d="M195.503,43.407h-6.293l-11.129-16.006v16.006h-6.687V16.271h6.293l11.129,16.399V16.271h6.687V43.407z"/>
		<path fill="#282933" d="M225.9,43.407h-7.274l-1.729-4.916h-10.854l-1.729,4.916h-6.884l10.227-27.136h8.021L225.9,43.407z
			 M214.969,32.985l-3.5-9.91l-3.5,9.91H214.969z"/>
		<path fill="#282933" d="M252.016,43.407h-6.293l-11.129-16.006v16.006h-6.686V16.271h6.292l11.13,16.399V16.271h6.686V43.407z"/>
		<path fill="#282933" d="M270.105,37.704c1.469,0,2.832-0.157,4.091-0.472s2.45-0.787,3.579-1.416v6.253
			c-1.049,0.603-2.189,1.042-3.422,1.317c-1.233,0.275-2.768,0.413-4.602,0.413c-4.248,0-7.755-1.311-10.521-3.933
			c-2.767-2.621-4.148-5.938-4.148-9.95c0-4.063,1.402-7.419,4.208-10.067s6.345-3.972,10.619-3.972
			c1.625,0,3.054,0.151,4.286,0.452c1.231,0.302,2.294,0.754,3.186,1.357v6.253c-1.021-0.655-2.13-1.146-3.322-1.475
			c-1.193-0.328-2.537-0.492-4.031-0.492c-2.49,0-4.443,0.695-5.859,2.084c-1.416,1.39-2.124,3.317-2.124,5.781
			c0,2.465,0.715,4.392,2.144,5.781C265.617,37.007,267.59,37.704,270.105,37.704z"/>
		<path fill="#282933" d="M280.961,16.271h6.686v27.136h-6.686V16.271z"/>
		<path fill="#282933" d="M318.124,43.407h-7.274l-1.73-4.916h-10.854l-1.73,4.916h-6.883l10.226-27.136h8.022L318.124,43.407z
			 M307.191,32.985l-3.5-9.91l-3.5,9.91H307.191z"/>
		<path fill="#282933" d="M320.13,16.271h6.687v21.237h12.427v5.899H320.13V16.271z"/>
	</g>
	<g>
		<path fill="#282933" d="M78.072,81.789c-1.94,0-3.646-0.164-5.112-0.492c-1.469-0.327-2.806-0.832-4.012-1.514v-6.41
			c1.704,0.918,3.304,1.565,4.799,1.946c1.494,0.381,3.119,0.57,4.876,0.57c1.494,0,2.55-0.15,3.166-0.453
			c0.615-0.301,0.924-0.807,0.924-1.514c0-0.682-0.334-1.245-1.003-1.691c-0.668-0.444-1.854-0.931-3.559-1.455
			c-3.146-0.969-5.467-2.155-6.961-3.56c-1.494-1.401-2.242-3.1-2.242-5.093c0-2.518,0.983-4.521,2.95-6.018
			c1.966-1.495,4.614-2.241,7.944-2.241c1.599,0,3.061,0.118,4.385,0.354c1.323,0.236,2.497,0.59,3.52,1.063v6.175
			c-1.337-0.551-2.721-0.971-4.149-1.259c-1.429-0.288-2.799-0.433-4.109-0.433c-1.206,0-2.104,0.15-2.693,0.451
			c-0.591,0.303-0.886,0.78-0.886,1.436c0,0.656,0.394,1.207,1.181,1.651c0.786,0.446,2.307,1.05,4.562,1.811
			c2.91,0.97,4.975,2.084,6.194,3.343c1.219,1.259,1.828,2.91,1.828,4.955c0,2.568-1.056,4.607-3.166,6.115
			C84.397,81.035,81.586,81.789,78.072,81.789z"/>
		<path fill="#282933" d="M111.187,54.259v5.899H99.152v4.68h8.888v5.899h-8.888v4.758h12.034v5.898h-18.72V54.259H111.187z"/>
		<path fill="#282933" d="M137.456,81.396h-7.747l-5.191-9.715h-3.264v9.715h-6.686V54.259h11.09c3.041,0,5.564,0.813,7.57,2.438
			c2.006,1.626,3.009,3.671,3.009,6.135c0,1.651-0.459,3.16-1.377,4.522c-0.918,1.363-2.189,2.426-3.814,3.186L137.456,81.396z
			 M129.276,63.069c0-0.918-0.321-1.633-0.964-2.145s-1.527-0.767-2.654-0.767h-4.404v5.819h4.404c1.127,0,2.012-0.256,2.654-0.767
			C128.955,64.701,129.276,63.987,129.276,63.069z"/>
		<path fill="#282933" d="M158.771,54.259h7.001l-10.619,27.137h-7.904l-10.54-27.137h7.434l7.314,20.098L158.771,54.259z"/>
		<path fill="#282933" d="M167.777,54.259h6.686v27.137h-6.686V54.259z"/>
		<path fill="#282933" d="M192.671,75.692c1.468,0,2.831-0.156,4.09-0.473c1.259-0.313,2.451-0.785,3.579-1.414v6.252
			c-1.049,0.604-2.189,1.043-3.422,1.317s-2.768,0.413-4.602,0.413c-4.248,0-7.754-1.311-10.521-3.934
			c-2.767-2.621-4.149-5.938-4.149-9.949c0-4.063,1.402-7.42,4.209-10.067c2.806-2.647,6.345-3.972,10.619-3.972
			c1.625,0,3.054,0.151,4.285,0.452c1.232,0.302,2.294,0.754,3.187,1.357v6.253c-1.022-0.655-2.13-1.146-3.323-1.475
			s-2.536-0.492-4.031-0.492c-2.49,0-4.443,0.695-5.859,2.085c-1.416,1.391-2.123,3.316-2.123,5.781
			c0,2.464,0.715,4.392,2.144,5.779C188.182,74.999,190.154,75.692,192.671,75.692z"/>
		<path fill="#282933" d="M222.245,54.259v5.899h-12.034v4.68h8.889v5.899h-8.889v4.758h12.034v5.898h-18.72V54.259H222.245z"/>
		<path fill="#282933" d="M233.57,81.789c-1.94,0-3.646-0.164-5.112-0.492c-1.469-0.327-2.806-0.832-4.012-1.514v-6.41
			c1.704,0.918,3.304,1.565,4.799,1.946c1.494,0.381,3.119,0.57,4.876,0.57c1.494,0,2.55-0.15,3.166-0.453
			c0.615-0.301,0.924-0.807,0.924-1.514c0-0.682-0.334-1.245-1.003-1.691c-0.668-0.444-1.854-0.931-3.56-1.455
			c-3.146-0.969-5.467-2.155-6.961-3.56c-1.494-1.401-2.241-3.1-2.241-5.093c0-2.518,0.982-4.521,2.95-6.018
			c1.966-1.495,4.613-2.241,7.943-2.241c1.6,0,3.061,0.118,4.385,0.354c1.323,0.236,2.497,0.59,3.521,1.063v6.175
			c-1.337-0.551-2.722-0.971-4.149-1.259c-1.429-0.288-2.799-0.433-4.108-0.433c-1.206,0-2.104,0.15-2.693,0.451
			c-0.591,0.303-0.886,0.78-0.886,1.436c0,0.656,0.394,1.207,1.181,1.651c0.786,0.446,2.308,1.05,4.562,1.811
			c2.91,0.97,4.976,2.084,6.194,3.343c1.22,1.259,1.828,2.91,1.828,4.955c0,2.568-1.056,4.607-3.166,6.115
			C239.896,81.035,237.084,81.789,233.57,81.789z"/>
	</g>
	<g>
		<path fill="#282933" d="M82.986,108.921h-2.934l-5.611-6.962l-2.143,2.469v4.493h-2.397V92.856h2.397v8.521l7.265-8.521h2.678
			l-6.264,7.312L82.986,108.921z"/>
		<path fill="#282933" d="M90.763,109.154c-2.358,0-4.312-0.779-5.854-2.341c-1.545-1.56-2.316-3.526-2.316-5.9
			c0-2.391,0.775-4.369,2.328-5.938c1.552-1.567,3.508-2.353,5.867-2.353c2.359,0,4.311,0.784,5.855,2.353
			c1.544,1.567,2.316,3.539,2.316,5.914c0,2.391-0.776,4.364-2.328,5.924C95.077,108.375,93.122,109.154,90.763,109.154z
			 M90.786,106.965c1.691,0,3.062-0.559,4.109-1.676c1.048-1.118,1.571-2.585,1.571-4.399c0-1.802-0.523-3.261-1.571-4.378
			c-1.048-1.118-2.418-1.677-4.109-1.677c-1.708,0-3.085,0.559-4.133,1.677c-1.048,1.117-1.571,2.576-1.571,4.378
			c0,1.814,0.523,3.281,1.571,4.399C87.701,106.407,89.078,106.965,90.786,106.965z"/>
		<path fill="#282933" d="M114.161,108.921h-2.817l-3.911-6.611h-3.493v6.611h-2.397V92.856h6.239c1.63,0,2.979,0.438,4.052,1.315
			c1.07,0.877,1.606,1.99,1.606,3.341c0,1.057-0.322,1.982-0.967,2.782c-0.644,0.8-1.517,1.37-2.619,1.711L114.161,108.921z
			 M110.925,97.583c0-0.775-0.287-1.4-0.861-1.874s-1.335-0.71-2.282-0.71h-3.842v5.238h3.842c0.947,0,1.708-0.244,2.282-0.733
			S110.925,98.375,110.925,97.583z"/>
		<path fill="#282933" d="M126.966,92.856v2.143H118.7v4.656h6.101v2.143H118.7v5.005h8.266v2.119h-10.663V92.856H126.966z"/>
		<path fill="#282933" d="M143.868,108.921h-2.607l-1.443-3.586h-8.009l-1.421,3.586h-2.491l6.565-16.064h2.841L143.868,108.921z
			 M139.025,103.333l-3.213-8.009l-3.189,8.009H139.025z"/>
	</g>
</g>
</svg>
