<?xml version="1.0" encoding="utf-8"?>
<!-- Generator: Adobe Illustrator 16.0.0, SVG Export Plug-In . SVG Version: 6.00 Build 0)  -->
<!DOCTYPE svg PUBLIC "-//W3C//DTD SVG 1.1//EN" "http://www.w3.org/Graphics/SVG/1.1/DTD/svg11.dtd">
<svg version="1.1" id="Layer_1" xmlns="http://www.w3.org/2000/svg" xmlns:xlink="http://www.w3.org/1999/xlink" x="0px" y="0px"
	 width="76.539px" height="122.385px" viewBox="0 0 76.539 122.385" enable-background="new 0 0 76.539 122.385"
	 xml:space="preserve">
<path fill="none" stroke="#FF7900" stroke-width="3" stroke-linecap="round" stroke-linejoin="round" stroke-miterlimit="10" d="
	M69.37,120.885H7.169c-3.118,0-5.669-2.551-5.669-5.669V7.169C1.5,4.051,4.051,1.5,7.169,1.5H69.37c3.118,0,5.669,2.551,5.669,5.669
	v108.047C75.039,118.334,72.488,120.885,69.37,120.885z"/>
<line fill="none" stroke="#FF7900" stroke-width="3" stroke-linecap="round" stroke-linejoin="round" stroke-miterlimit="10" x1="3.744" y1="16.759" x2="72.794" y2="16.759"/>
<line fill="none" stroke="#FF7900" stroke-width="3" stroke-linecap="round" stroke-linejoin="round" stroke-miterlimit="10" x1="3.744" y1="98.444" x2="72.794" y2="98.444"/>
<circle fill="none" stroke="#FF7900" stroke-width="3" stroke-linecap="round" stroke-linejoin="round" stroke-miterlimit="10" cx="38.27" cy="109.664" r="4.04"/>
<line fill="none" stroke="#FF7900" stroke-width="3" stroke-linecap="round" stroke-linejoin="round" stroke-miterlimit="10" x1="35.127" y1="9.129" x2="41.411" y2="9.129"/>
<path fill="none" stroke="#FF7900" stroke-width="3" stroke-linecap="round" stroke-linejoin="round" stroke-miterlimit="10" d="
	M35.033,58.641c0,0,1.009,3.574-7.731,7.572c-8.739,3.999-5.37,13.248-5.37,13.248"/>
<path fill="none" stroke="#FF7900" stroke-width="3" stroke-linecap="round" stroke-linejoin="round" stroke-miterlimit="10" d="
	M41.506,58.641c0,0-1.01,3.574,7.731,7.572c8.739,3.999,5.37,13.248,5.37,13.248"/>
<path fill="none" stroke="#FF7900" stroke-width="3" stroke-linecap="round" stroke-linejoin="round" stroke-miterlimit="10" d="
	M46.959,47.578c0,5.499-3.263,11.139-8.744,11.139c-5.479,0-8.742-5.64-8.742-11.139c0-5.5,3.263-8.778,8.742-8.778
	C43.697,38.8,46.959,42.078,46.959,47.578z"/>
</svg>
