<?xml version="1.0" encoding="utf-8"?>
<!-- Generator: Adobe Illustrator 16.0.0, SVG Export Plug-In . SVG Version: 6.00 Build 0)  -->
<!DOCTYPE svg PUBLIC "-//W3C//DTD SVG 1.1//EN" "http://www.w3.org/Graphics/SVG/1.1/DTD/svg11.dtd">
<svg version="1.1" id="_x3C_Layer_x3E_" xmlns="http://www.w3.org/2000/svg" xmlns:xlink="http://www.w3.org/1999/xlink" x="0px"
	 y="0px" width="25.664px" height="30.029px" viewBox="0 0 25.664 30.029" enable-background="new 0 0 25.664 30.029"
	 xml:space="preserve">
<g>
	<path fill="none" stroke="#231815" stroke-width="2" stroke-linecap="round" stroke-linejoin="round" stroke-miterlimit="10" d="
		M17.184,18.063c-1.722-1.307-2.218-2.63-2.186-3.101c0.013-0.185,0.061-0.594,0.061-0.594"/>
	<path fill="none" stroke="#231815" stroke-width="2" stroke-linecap="round" stroke-linejoin="round" stroke-miterlimit="10" d="
		M10.472,14.678c0,0,0.696,2.464-5.33,5.22C-0.882,22.655,1.44,29.03,1.44,29.03h12.945"/>
</g>
<g>
	<path fill="none" stroke="#231815" stroke-width="2" stroke-linecap="round" stroke-linejoin="round" stroke-miterlimit="10" d="
		M8.48,18.063c1.722-1.307,2.217-2.63,2.185-3.101c-0.013-0.185-0.06-0.594-0.06-0.594"/>
	<path fill="none" stroke="#231815" stroke-width="2" stroke-linecap="round" stroke-linejoin="round" stroke-miterlimit="10" d="
		M15.191,14.678c0,0-0.695,2.464,5.33,5.22c6.025,2.758,3.703,9.133,3.703,9.133H11.278"/>
</g>
<path fill="none" stroke="#231815" stroke-width="2" stroke-linecap="round" stroke-linejoin="round" stroke-miterlimit="10" d="
	M18.693,7.052c0,3.79-2.25,7.679-6.026,7.679c-3.778,0-6.027-3.889-6.027-7.679C6.639,3.26,8.888,1,12.667,1
	C16.443,1,18.693,3.26,18.693,7.052z"/>
<path fill="none" stroke="#231815" stroke-width="2" stroke-linecap="round" stroke-linejoin="round" stroke-miterlimit="10" d="
	M15.307,15.272"/>
</svg>
