<?xml version="1.0" encoding="utf-8"?>
<!-- Generator: Adobe Illustrator 16.0.0, SVG Export Plug-In . SVG Version: 6.00 Build 0)  -->
<!DOCTYPE svg PUBLIC "-//W3C//DTD SVG 1.1//EN" "http://www.w3.org/Graphics/SVG/1.1/DTD/svg11.dtd">
<svg version="1.1" id="_x3C_Layer_x3E_" xmlns="http://www.w3.org/2000/svg" xmlns:xlink="http://www.w3.org/1999/xlink" x="0px"
	 y="0px" width="33.079px" height="33.485px" viewBox="0 0 33.079 33.485" enable-background="new 0 0 33.079 33.485"
	 xml:space="preserve">
<g>
	<path fill="none" stroke="#231815" stroke-width="2" stroke-linecap="round" stroke-linejoin="round" stroke-miterlimit="10" d="
		M23.006,26.941c-0.92,1.455-2.172,2.733-3.729,3.712c-5.576,3.506-12.939,1.829-16.445-3.747
		c-3.507-5.576-1.829-12.939,3.747-16.445c5.577-3.508,12.939-1.829,16.446,3.747"/>
	<path fill="none" stroke="#231815" stroke-width="2" stroke-linecap="round" stroke-linejoin="round" stroke-miterlimit="10" d="
		M6.612,10.463V7.299C6.612,3.835,9.447,1,12.91,1l0,0c3.464,0,6.299,2.835,6.299,6.299v2.845"/>
	
		<circle fill="none" stroke="#231815" stroke-width="2" stroke-linecap="round" stroke-linejoin="round" stroke-miterlimit="10" cx="13.237" cy="20.557" r="5.063"/>
	
		<line fill="none" stroke="#231815" stroke-width="2" stroke-linecap="round" stroke-linejoin="round" stroke-miterlimit="10" x1="18.3" y1="20.557" x2="31.786" y2="20.557"/>
	<path fill="none" stroke="#231815" stroke-width="2" stroke-linecap="round" stroke-linejoin="round" stroke-miterlimit="10" d="
		M27.022,18.007c0-1.391,1.138-2.528,2.529-2.528l0,0c1.39,0,2.528,1.138,2.528,2.528v2.409"/>
</g>
</svg>
